<?xml version="1.0" encoding="UTF-8"?>
<svg id="Camada_2" data-name="Camada 2" xmlns="http://www.w3.org/2000/svg" viewBox="0 0 30.86 29.11">
  <defs>
    <style>
      .cls-1 {
        fill: #f1a447;
      }

      .cls-2 {
        fill: #4dbfd7;
      }

      .cls-3 {
        fill: #21b7c6;
      }

      .cls-4 {
        fill: #ef7d5a;
      }

      .cls-5 {
        fill: #ce411d;
      }

      .cls-6 {
        fill: #0a3a55;
      }

      .cls-7 {
        fill: #092e3e;
      }

      .cls-8 {
        fill: #f8c481;
      }

      .cls-9 {
        fill: #e95023;
      }

      .cls-10 {
        fill: #f9c98b;
      }

      .cls-11 {
        fill: #77cae2;
      }

      .cls-12 {
        fill: #825913;
      }

      .cls-13 {
        fill: #14273a;
      }

      .cls-14 {
        fill: #f3e72f;
      }

      .cls-15 {
        fill: #c63e1b;
      }

      .cls-16 {
        fill: #e7e22d;
      }

      .cls-17 {
        fill: #fdfbf2;
      }

      .cls-18 {
        fill: #e0481e;
      }

      .cls-19 {
        fill: #865713;
      }

      .cls-20 {
        fill: #1a5c65;
      }

      .cls-21 {
        fill: #dee058;
      }
    </style>
  </defs>
  <g id="Camada_1-2" data-name="Camada 1">
    <g>
      <path class="cls-10" d="M19.3,26c-.23.48-.04,1.18-.58,1.66-.79.71-1.73,1.15-2.86,1.31-3.69.5-7.52-.3-10.6-2.47C1.33,23.74-.55,18.96.14,14.28l.11-.78c-.06,2.65.42,5.34,1.86,7.68,2.85,4.66,8.31,6.77,13.69,6.21,1.32-.14,2.49-.61,3.5-1.39Z"/>
      <path class="cls-13" d="M30.12,15.55c-1.22,3.94-5.89,4.58-9.44,4.11-1.11.02-2.39.48-1.65,1.77l-.09.42.66,1.24c.57,1.08.14,1.99-.3,2.91-.63,1.22-2.43,1.6-3.73,1.71C7.02,28.44-.8,22.51.25,13.5c.22-1.53.5-3.03,1.11-4.55C3.05,4.76,6.58,1.71,10.99.62c4.63-1.16,9.61-.71,13.8,1.56,4.89,2.65,7.42,8.26,5.33,13.38Z"/>
      <path class="cls-8" d="M18.94,21.85c-.27-.51-.73-1.33-.15-1.86.72-.65,1.88-.71,2.85-.58,3.48.45,6.97-.78,8.48-3.86-.17,1.76-1.37,3.27-2.89,4.29-3.82,2.57-7.7-.05-8.29,2Z"/>
      <path class="cls-18" d="M4.29,12.84c.31-.12.62.08.94.59.3.18.43.39.39.64.66.48,1.61.44,2.37.2l.13.11c.73.17,1.45.1,2.24.1l2.8-.02.3.2c.21,1.98,2.32,3.24,4.12,2.22l.33.15c.56.07.43.37-.41.88.27.38.37.7.29.97-.54.65-.85,1.5-.69,2.29.2,1.91-2.45,2.05-3.87,2-1.34-.21-2.67-.33-4-.34-.31-.01-.42-.15-.37-.47l.13-.18c6.8-.49,1.83-9.32-2.23-4.01.21.25.26.61.14,1.07.12.48.06.83-.18,1.05.31.58.71,1.06,1.21,1.45v.22c.44.63-.45.5-.94.37-2.59-.69-5.3-5.51-5.25-8.15.02-.69.02-1.27.12-1.97.1-.27.22-.42.36-.44l.62-.73c.26.47.56.83,1,1.13.09.32.28.5.45.65Z"/>
      <path class="cls-15" d="M7.96,21.98c.07-.31.99.07.92.39.42.37,1.08.04,1.6.14,2.52.46,6.01.94,6.64-1.33.29,1.42,2.46,3.24.43,4.26-.98.49-2.03.61-3.17.62-7.2.05-12.8-4.64-12.62-11.85.29.11.12.49.16.64.93,3.01,1.55,4.31,3.9,6.49.65.6,2.06,1.17,2.14.65Z"/>
      <path class="cls-5" d="M17.8,18.88c-.2-.29-.55-.54-.58-.94-.03-.5,1.1-.59.69-.91l-.03-.38c.57-.54,1.01-1.23,1.06-2.03l.3-.22,3.6.18c2.87.15,5.65-2.11,5.52-5.67v-1.34c1.47,2.61,1.57,6.45-.48,8.61-1.37,1.45-3.35,2-5.33,1.83-1.67-.14-3.81-.26-4.75.86Z"/>
      <path class="cls-7" d="M19.24,14.4c.04,1.05-.54,1.95-1.33,2.63-.95.58-2.16.73-3.19.09-.88-.55-1.6-1.55-1.56-2.67.05-1.62,1.45-3.02,3.06-2.98s2.96,1.31,3.01,2.93Z"/>
      <circle class="cls-3" cx="16.21" cy="14.54" r="1.55"/>
      <path class="cls-2" d="M6.73,20.3c-.13-.66-.18-1.43.04-2.12,1.43-2.7,5.57-1.92,5.6,1.19s-4.48,3.89-5.64.93Z"/>
      <path class="cls-20" d="M8.87,22.37l-.92-.39c-.59-.25-1.13-1.21-1.22-1.68.13,0,.17.02.24.14.85,1.47,2.67,1.98,4.15,1.05.59-.37,1.12-1.16,1.14-1.92.05-1.46-1.18-2.76-2.62-2.86-.95-.06-1.82.42-2.41,1.07-.16.18-.2.44-.46.39.41-1.27,1.64-1.95,2.92-1.87,1.17.07,2.24.8,2.65,2.06.34,1.03.02,2.2-.71,2.98-.67.72-1.71,1.22-2.76,1.02Z"/>
      <circle class="cls-11" cx="9.49" cy="19.27" r="1.68"/>
      <path class="cls-9" d="M27.17,5.84c.5.5.81,1.13,1.2,1.74.56,1.69.27,3.53-.76,4.99-1.93,2.73-5.24,2.45-8.17,2.14l-.2-.31-.31-.19c-.54-3.27-4.97-3.22-5.46.06l-.31.18c-.01.12-.05.29-.13.3-.74.06-4.28.12-4.68-.03l-.23-.35-.08-.13c.72-.28,1.2-.73,1.46-1.33l-.16-.33c1.77-5.11-6.25-5.25-4.85-.05l-.21.32-.36.06c-.33-.47-.71-.91-1.14-1.32-.16.23-.27.36-.56.21-.06-.99.46-2.14.91-3.05C7.5-.11,20.57-.52,27.17,5.84Z"/>
      <path class="cls-4" d="M27.17,5.84c-.04.12-.17.12-.22,0-3.7-3.49-9.82-4.66-14.69-3.65S3.45,6.9,2.22,11.79c-.11.13-.15.44-.36.44.36-2.54,1.49-5.01,3.3-6.87C9.14,1.28,15.01.59,20.43,1.81c2.39.54,5.31,2.1,6.75,4.04Z"/>
      <circle class="cls-6" cx="22.21" cy="8.27" r="2.97"/>
      <circle class="cls-12" cx="13.43" cy="5.76" r="2.98"/>
      <path class="cls-14" d="M15.63,7.27c-.73,1.05-1.97,1.38-3.09,1.05-1.03-.3-1.9-1.29-1.86-2.52s1.12-2.2,2.33-2.42c1.02-.18,1.96.25,2.48.97.62.85.78,1.99.14,2.92Z"/>
      <path class="cls-17" d="M14.86,4.83c.69.85.34,1.89-.44,2.46s-1.91.31-2.54-.5c-.6-.77-.34-1.84.42-2.37.82-.56,1.84-.47,2.55.41Z"/>
      <path class="cls-1" d="M8.13,14.37c-.45.31-2.29.33-2.5-.31,1.44.5,3.01.16,3.89-1.16.09.27-.05.56-.34.75l-1.04.71Z"/>
      <path class="cls-19" d="M9.51,12.9c-.59,1.37-2.62,1.99-3.89,1.16-.56-.21-.92-.85-1.33-1.22-.39-1.11-.42-2.36.31-3.29,1.04-1.32,2.81-1.54,4.11-.67,1.37.91,1.55,2.72.8,4.03Z"/>
      <path class="cls-16" d="M9.59,12.06c-.29,1.42-1.72,2.15-2.95,1.99-1.33-.18-2.45-1.31-2.35-2.77.11-1.54,1.6-2.61,3.03-2.39s2.58,1.59,2.27,3.17Z"/>
      <path class="cls-21" d="M8.6,12.44c-.42.9-1.76,1.11-2.47.6-.44-.32-.84-.81-.92-1.34-.1-.76.38-1.63,1.11-1.93.77-.32,1.87.02,2.27.77.27.5.28,1.32.01,1.9Z"/>
    </g>
  </g>
</svg>